<svg width="66" height="36" fill="none" xmlns="http://www.w3.org/2000/svg"><path d="M.578 35V.875H11.57c3.016 0 5.727.688 8.133 2.063 2.406 1.359 4.281 3.289 5.625 5.789 1.36 2.484 2.047 5.273 2.063 8.367v1.57c0 3.125-.664 5.93-1.993 8.414a14.472 14.472 0 0 1-5.578 5.813c-2.39 1.39-5.062 2.093-8.015 2.109H.578ZM8.805 7.227v21.445h2.86c2.358 0 4.17-.836 5.437-2.508 1.265-1.687 1.898-4.187 1.898-7.5v-1.477c0-3.296-.633-5.78-1.898-7.453-1.266-1.671-3.11-2.507-5.532-2.507H8.805Z" fill="#85171A"/><path d="M46.81 25.93c0-1.203-.429-2.14-1.288-2.813-.844-.672-2.336-1.367-4.477-2.086-2.14-.718-3.89-1.414-5.25-2.086-4.422-2.172-6.633-5.156-6.633-8.953 0-1.89.547-3.555 1.641-4.992 1.11-1.453 2.672-2.578 4.688-3.375C37.506.812 39.77.406 42.288.406c2.453 0 4.648.438 6.585 1.313 1.954.875 3.47 2.125 4.547 3.75 1.078 1.61 1.617 3.453 1.617 5.531h-8.203c0-1.39-.43-2.469-1.289-3.234C44.702 7 43.553 6.617 42.1 6.617c-1.469 0-2.633.328-3.492.985-.844.64-1.266 1.46-1.266 2.46 0 .876.469 1.672 1.406 2.391.938.703 2.586 1.438 4.946 2.203 2.36.75 4.297 1.563 5.812 2.438 3.688 2.125 5.532 5.054 5.532 8.789 0 2.984-1.125 5.328-3.375 7.031-2.25 1.703-5.336 2.555-9.258 2.555-2.766 0-5.274-.492-7.524-1.477-2.234-1-3.922-2.36-5.062-4.078-1.125-1.734-1.688-3.727-1.688-5.977h8.25c0 1.829.469 3.18 1.407 4.055.953.86 2.492 1.29 4.617 1.29 1.36 0 2.43-.29 3.21-.868.797-.594 1.196-1.422 1.196-2.484Z" fill="#DC2025"/><path d="M65.622 35h-8.203V.875h8.203V35Z" fill="#FEBA08"/></svg>